<svg xmlns="http://www.w3.org/2000/svg" class="icon" fill="#fff" viewBox="0 0 512 512">
    <defs>
        <linearGradient x1="0" x2="1" y1="0" y2="1" id="skoll-rank-3-gradient-0">
            <stop offset="0%" stop-color="#000" stop-opacity="1"></stop>
            <stop offset="100%" stop-color="#000" stop-opacity="1"></stop>
        </linearGradient>
    </defs>
    <g class="" transform="translate(0,0)" style="">
        <path
            d="M255 471L91.7 387V41h328.6v346zm-147.3-93.74L255 453l149.3-75.76V57H107.7v320.26zm187.61-168.34l-14.5-46 38.8-28.73-48.27-.43L256 87.94l-15.33 45.78-48.27.43 38.8 28.73-14.5 46 39.31-28zM254.13 311.5l98.27-49.89v-49.9l-98.14 49.82-94.66-48.69v50zm.13 32.66l-94.66-48.69v50l94.54 48.62 98.27-49.89v-49.9z"
            fill-opacity="1"></path>
    </g>
</svg>